<?xml version="1.0" encoding="UTF-8" standalone="no"?>
<svg
   xmlns:dc="http://purl.org/dc/elements/1.1/"
   xmlns:cc="http://creativecommons.org/ns#"
   xmlns:rdf="http://www.w3.org/1999/02/22-rdf-syntax-ns#"
   xmlns:svg="http://www.w3.org/2000/svg"
   xmlns="http://www.w3.org/2000/svg"
   xmlns:sodipodi="http://sodipodi.sourceforge.net/DTD/sodipodi-0.dtd"
   xmlns:inkscape="http://www.inkscape.org/namespaces/inkscape"
   version="1.0"
   x="0px"
   y="0px"
   viewBox="0 0 20 20"
   enable-background="new 0 0 32 32"
   xml:space="preserve"
   id="svg3180"
   inkscape:version="0.48.4 r9939"
   width="100%"
   height="100%"
   sodipodi:docname="pause.svg"><metadata
     id="metadata3192"><rdf:RDF><cc:Work
         rdf:about=""><dc:format>image/svg+xml</dc:format><dc:type
           rdf:resource="http://purl.org/dc/dcmitype/StillImage" /></cc:Work></rdf:RDF></metadata><defs
     id="defs3190" /><sodipodi:namedview
     pagecolor="#ffffff"
     bordercolor="#666666"
     borderopacity="1"
     objecttolerance="10"
     gridtolerance="10"
     guidetolerance="10"
     inkscape:pageopacity="0"
     inkscape:pageshadow="2"
     inkscape:window-width="1203"
     inkscape:window-height="781"
     id="namedview3188"
     showgrid="false"
     fit-margin-top="0"
     fit-margin-left="0"
     fit-margin-right="0"
     fit-margin-bottom="0"
     inkscape:zoom="5.9"
     inkscape:cx="10"
     inkscape:cy="6"
     inkscape:window-x="1513"
     inkscape:window-y="174"
     inkscape:window-maximized="0"
     inkscape:current-layer="svg3180" /><path
     d="m 8,2 v 16 c 0,1.105 -0.895,2 -2,2 H 2 C 0.895,20 0,19.105 0,18 V 2 C 0,0.895 0.895,0 2,0 H 6 C 7.105,0 8,0.895 8,2 z M 18,0 h -4 c -1.105,0 -2,0.895 -2,2 v 16 c 0,1.105 0.895,2 2,2 h 4 c 1.105,0 2,-0.895 2,-2 V 2 C 20,0.895 19.105,0 18,0 z"
     id="path3182"
     style="fill:#ff0000"
     inkscape:connector-curvature="0" /></svg>