<svg>

  <defs>

      <symbol id="play" viewBox="0 0 20 24.081394">
        <path
           d="M 24.95734,9.9013427 C 20.010337,6.8572215 16,9.1079484 16,14.915802 l 0,70.905237 c 0,5.813531 4.017293,8.054301 8.95734,5.01446 L 81.763058,55.88029 c 4.947002,-3.044122 4.940047,-7.983897 0,-11.023738 L 24.95734,9.9013427 z"
           id="path3082"
           style="fill:#ff0000"
           inkscape:connector-curvature="0" />
      </symbol>

      <symbol id="pause" viewBox="0 0 20 20">
        <path
             d="m 8,2 v 16 c 0,1.105 -0.895,2 -2,2 H 2 C 0.895,20 0,19.105 0,18 V 2 C 0,0.895 0.895,0 2,0 H 6 C 7.105,0 8,0.895 8,2 z M 18,0 h -4 c -1.105,0 -2,0.895 -2,2 v 16 c 0,1.105 0.895,2 2,2 h 4 c 1.105,0 2,-0.895 2,-2 V 2 C 20,0.895 19.105,0 18,0 z"
             id="path3182"
             style="fill:#ff0000"
         inkscape:connector-curvature="0" />
      </symbol>

  </defs>

</svg>


