<?xml version="1.0" encoding="UTF-8" standalone="no"?>
<!-- Created with Inkscape (http://www.inkscape.org/) -->

<svg
   xmlns:dc="http://purl.org/dc/elements/1.1/"
   xmlns:cc="http://creativecommons.org/ns#"
   xmlns:rdf="http://www.w3.org/1999/02/22-rdf-syntax-ns#"
   xmlns:svg="http://www.w3.org/2000/svg"
   xmlns="http://www.w3.org/2000/svg"
   xmlns:sodipodi="http://sodipodi.sourceforge.net/DTD/sodipodi-0.dtd"
   xmlns:inkscape="http://www.inkscape.org/namespaces/inkscape"
   width="180.05353"
   height="202.29607"
   id="svg3076"
   version="1.1"
   inkscape:version="0.48.4 r9939"
   sodipodi:docname="tomato.svg">
  <defs
     id="defs3078" />
  <sodipodi:namedview
     id="base"
     pagecolor="#ffffff"
     bordercolor="#666666"
     borderopacity="1.0"
     inkscape:pageopacity="0.0"
     inkscape:pageshadow="2"
     inkscape:zoom="2.8"
     inkscape:cx="48.030359"
     inkscape:cy="104.3406"
     inkscape:document-units="px"
     inkscape:current-layer="layer1"
     showgrid="false"
     inkscape:window-width="1280"
     inkscape:window-height="775"
     inkscape:window-x="1680"
     inkscape:window-y="148"
     inkscape:window-maximized="1"
     fit-margin-top="0"
     fit-margin-left="0"
     fit-margin-right="0"
     fit-margin-bottom="0" />
  <metadata
     id="metadata3081">
    <rdf:RDF>
      <cc:Work
         rdf:about="">
        <dc:format>image/svg+xml</dc:format>
        <dc:type
           rdf:resource="http://purl.org/dc/dcmitype/StillImage" />
        <dc:title />
      </cc:Work>
    </rdf:RDF>
  </metadata>
  <g
     inkscape:label="Layer 1"
     inkscape:groupmode="layer"
     id="layer1"
     transform="translate(-286.58175,-185.08527)">
    <path
       sodipodi:type="arc"
       style="fill:#fb0000;fill-opacity:0.96862745;stroke:#870000;stroke-width:3.15271419000000019;stroke-miterlimit:4;stroke-opacity:1;stroke-dasharray:none"
       id="path4006"
       sodipodi:cx="297.2374"
       sodipodi:cy="254.84676"
       sodipodi:rx="32.072342"
       sodipodi:ry="31.212393"
       d="m 329.30974,254.84676 c 0,17.23812 -14.35928,31.21239 -32.07234,31.21239 -17.71307,0 -32.07235,-13.97427 -32.07235,-31.21239 0,-17.23813 14.35928,-31.2124 32.07235,-31.2124 17.71306,0 32.07234,13.97427 32.07234,31.2124 z"
       transform="matrix(2.6761324,0,0,2.6149013,-418.83002,-365.03402)" />
    <path
       style="opacity:0.25980392000000002;fill:#ee6d6d;fill-opacity:1;stroke:none"
       d="m 330.35224,260.2938 c -8.57742,3.08806 -16.43568,15.28151 -13.12225,23.64956 3.81885,9.64463 19.47253,8.53462 29.88963,10.03314 12.51236,1.79994 25.29447,-0.55978 37.90884,-1.43334 9.50335,-0.65804 19.91851,1.33748 28.43161,-2.86659 10.60463,-5.23691 27.35195,-14.59176 24.05749,-25.79947 -2.30748,-7.84995 -15.7455,-6.4268 -24.05749,-6.4499 -11.31733,-0.0317 -21.67674,6.57809 -32.80573,8.59984 -9.13061,1.65874 -18.49847,4.07005 -27.70259,2.86661 -8.0074,-1.04695 -15.01428,-11.33063 -22.59951,-8.59985 z"
       id="path4107"
       inkscape:connector-curvature="0"
       sodipodi:nodetypes="ssssssssss" />
    <g
       id="g4116"
       transform="matrix(2.6362822,0,0,2.8461638,-568.97163,-440.5998)">
      <path
         sodipodi:nodetypes="cscsccccscscssccsscssc"
         inkscape:connector-curvature="0"
         id="path4018"
         d="m 353.89386,235.83715 c 0,0 -5.07549,-5.43618 -6.02822,-9.26636 -0.40663,-1.63477 0.30384,-4.79997 0.30384,-4.79997 0,0 3.54599,5.50645 5.19159,7.61845 1.92825,2.47475 5.58372,4.76423 5.58372,4.76423 l 10.77532,-4.7142 c -2.33954,2.59227 -5.66946,4.3128 -6.90294,8.58658 l 13.13241,-2.18873 c 0,0 -4.30898,1.34628 -6.65038,2.23084 -3.41289,1.28936 -9.84932,2.65172 -9.84932,2.65172 0,0 1.29981,1.86354 2.09006,2.56835 0.97419,0.86885 3.12923,1.80912 3.12923,1.80912 0,0 -3.78119,-0.45246 -4.99307,-1.57444 -1.76015,-1.62958 -1.82187,-1.15357 -3.35155,-1.12255 -2.24643,0.0455 -6.63979,3.03372 -6.63979,3.03372 l 3.36728,-6.06111 c 0,0 -6.83687,-2.99926 -9.93349,-5.05093 -2.32421,-1.53991 -0.98613,-0.0608 -2.33369,-2.50157 -0.98587,-1.78569 -1.24823,-3.55147 -1.24823,-3.55147 0,0 1.16697,0.60608 2.09006,1.86783 1.69743,2.3202 5.83494,2.00611 8.36025,3.37995 2.96201,1.6114 3.90692,2.32054 3.90692,2.32054 z"
         style="fill:#018000;fill-opacity:1;stroke:#005900;stroke-width:1.333377;stroke-linecap:butt;stroke-linejoin:round;stroke-miterlimit:4;stroke-opacity:1;stroke-dasharray:none" />
      <g
         transform="matrix(0.68232836,0,0,0.68232836,125.96182,75.351702)"
         id="g4112">
        <path
           style="fill:#015600;fill-opacity:1;stroke:#003700;stroke-width:1.7506038;stroke-linecap:butt;stroke-linejoin:round;stroke-miterlimit:4;stroke-opacity:1;stroke-dasharray:none"
           d="m 339.06188,215.96888 4.86304,2.21047 c 0,0 -1.70632,4.79338 -1.76838,7.29456 -0.0781,3.14932 1.76838,9.28397 1.76838,9.28397 l -8.62084,-0.44209 c -0.85614,-0.42807 -2.62475,-11.45037 -0.22105,-14.36806 1.79323,-2.17668 3.97885,-3.97885 3.97885,-3.97885 z"
           id="path4008"
           inkscape:connector-curvature="0"
           sodipodi:nodetypes="ccsccsc" />
        <path
           style="fill:#015600;fill-opacity:1;stroke:none"
           d="m 335.91196,232.82372 c -0.52947,-0.0588 -0.22759,1.7394 0.76533,2.60956 0.58267,0.51064 0.62154,1.04869 1.38988,1.14824 0.96974,0.12564 1.97047,0.0283 2.92887,-0.16578 0.80519,-0.16304 2.321,-0.82893 2.321,-0.82893 l -0.71841,-2.21047 z"
           id="path4105"
           inkscape:connector-curvature="0"
           sodipodi:nodetypes="csssccc" />
      </g>
    </g>
    <path
       style="fill:#000000;fill-opacity:0.23529412;stroke:none"
       d="m 315.4537,361.64357 c 15.6538,15.81752 37.84347,25.73777 62.48741,25.73777 24.65461,0 46.89767,-9.90822 62.55252,-25.73777 -18.69485,6.18057 -39.97363,9.64353 -62.55252,9.64353 -22.55529,0 -43.80669,-3.475 -62.48741,-9.64353 z"
       id="path4124"
       inkscape:connector-curvature="0" />
  </g>
</svg>
